<mxfile host="app.diagrams.net" agent="Mozilla/5.0 (X11; Ubuntu; Linux x86_64; rv:132.0) Gecko/20100101 Firefox/132.0" version="24.8.6">
  <diagram name="Page-1" id="676go7eMDt2_L950SBf1">
    <mxGraphModel dx="918" dy="638" grid="1" gridSize="10" guides="1" tooltips="1" connect="1" arrows="1" fold="1" page="1" pageScale="1" pageWidth="850" pageHeight="1100" math="0" shadow="0">
      <root>
        <mxCell id="0" />
        <mxCell id="1" parent="0" />
        <mxCell id="ieHxNAg3_DzlAvknqoRB-2" value="&lt;div&gt;User&lt;/div&gt;" style="rounded=0;whiteSpace=wrap;html=1;" vertex="1" parent="1">
          <mxGeometry x="120" y="240" width="120" height="60" as="geometry" />
        </mxCell>
        <mxCell id="ieHxNAg3_DzlAvknqoRB-3" value="id" style="ellipse;whiteSpace=wrap;html=1;" vertex="1" parent="1">
          <mxGeometry x="30" y="250" width="50" height="40" as="geometry" />
        </mxCell>
        <mxCell id="ieHxNAg3_DzlAvknqoRB-4" value="&lt;div&gt;role&lt;/div&gt;" style="ellipse;whiteSpace=wrap;html=1;" vertex="1" parent="1">
          <mxGeometry x="210" y="150" width="50" height="40" as="geometry" />
        </mxCell>
        <mxCell id="ieHxNAg3_DzlAvknqoRB-7" value="password" style="ellipse;whiteSpace=wrap;html=1;" vertex="1" parent="1">
          <mxGeometry x="150" y="110" width="60" height="50" as="geometry" />
        </mxCell>
        <mxCell id="ieHxNAg3_DzlAvknqoRB-8" value="&lt;div&gt;email&lt;/div&gt;" style="ellipse;whiteSpace=wrap;html=1;" vertex="1" parent="1">
          <mxGeometry x="110" y="150" width="50" height="40" as="geometry" />
        </mxCell>
        <mxCell id="ieHxNAg3_DzlAvknqoRB-9" value="&lt;div&gt;gender&lt;/div&gt;" style="ellipse;whiteSpace=wrap;html=1;" vertex="1" parent="1">
          <mxGeometry x="280" y="250" width="50" height="40" as="geometry" />
        </mxCell>
        <mxCell id="ieHxNAg3_DzlAvknqoRB-10" value="address" style="ellipse;whiteSpace=wrap;html=1;" vertex="1" parent="1">
          <mxGeometry x="250" y="180" width="50" height="40" as="geometry" />
        </mxCell>
        <mxCell id="ieHxNAg3_DzlAvknqoRB-12" value="name" style="ellipse;whiteSpace=wrap;html=1;" vertex="1" parent="1">
          <mxGeometry x="60" y="170" width="50" height="40" as="geometry" />
        </mxCell>
        <mxCell id="ieHxNAg3_DzlAvknqoRB-20" value="" style="endArrow=none;html=1;rounded=0;exitX=0.998;exitY=0.458;exitDx=0;exitDy=0;exitPerimeter=0;entryX=0;entryY=0.5;entryDx=0;entryDy=0;" edge="1" parent="1" source="ieHxNAg3_DzlAvknqoRB-3" target="ieHxNAg3_DzlAvknqoRB-2">
          <mxGeometry width="50" height="50" relative="1" as="geometry">
            <mxPoint x="80" y="290" as="sourcePoint" />
            <mxPoint x="130" y="240" as="targetPoint" />
          </mxGeometry>
        </mxCell>
        <mxCell id="ieHxNAg3_DzlAvknqoRB-21" value="" style="endArrow=none;html=1;rounded=0;entryX=0.5;entryY=0;entryDx=0;entryDy=0;exitX=1;exitY=1;exitDx=0;exitDy=0;" edge="1" parent="1" source="ieHxNAg3_DzlAvknqoRB-12" target="ieHxNAg3_DzlAvknqoRB-2">
          <mxGeometry width="50" height="50" relative="1" as="geometry">
            <mxPoint x="30" y="210" as="sourcePoint" />
            <mxPoint x="80" y="160" as="targetPoint" />
          </mxGeometry>
        </mxCell>
        <mxCell id="ieHxNAg3_DzlAvknqoRB-22" value="" style="endArrow=none;html=1;rounded=0;entryX=0.5;entryY=0;entryDx=0;entryDy=0;exitX=1;exitY=1;exitDx=0;exitDy=0;" edge="1" parent="1" source="ieHxNAg3_DzlAvknqoRB-8" target="ieHxNAg3_DzlAvknqoRB-2">
          <mxGeometry width="50" height="50" relative="1" as="geometry">
            <mxPoint x="120" y="190" as="sourcePoint" />
            <mxPoint x="217" y="226" as="targetPoint" />
          </mxGeometry>
        </mxCell>
        <mxCell id="ieHxNAg3_DzlAvknqoRB-23" value="" style="endArrow=none;html=1;rounded=0;entryX=0.5;entryY=0;entryDx=0;entryDy=0;exitX=0.5;exitY=1;exitDx=0;exitDy=0;" edge="1" parent="1" source="ieHxNAg3_DzlAvknqoRB-7" target="ieHxNAg3_DzlAvknqoRB-2">
          <mxGeometry width="50" height="50" relative="1" as="geometry">
            <mxPoint x="143" y="154" as="sourcePoint" />
            <mxPoint x="190" y="250" as="targetPoint" />
          </mxGeometry>
        </mxCell>
        <mxCell id="ieHxNAg3_DzlAvknqoRB-24" value="" style="endArrow=none;html=1;rounded=0;exitX=0.118;exitY=0.79;exitDx=0;exitDy=0;exitPerimeter=0;" edge="1" parent="1" source="ieHxNAg3_DzlAvknqoRB-4">
          <mxGeometry width="50" height="50" relative="1" as="geometry">
            <mxPoint x="190" y="140" as="sourcePoint" />
            <mxPoint x="180" y="240" as="targetPoint" />
          </mxGeometry>
        </mxCell>
        <mxCell id="ieHxNAg3_DzlAvknqoRB-25" value="" style="endArrow=none;html=1;rounded=0;exitX=0;exitY=0.5;exitDx=0;exitDy=0;" edge="1" parent="1" source="ieHxNAg3_DzlAvknqoRB-10">
          <mxGeometry width="50" height="50" relative="1" as="geometry">
            <mxPoint x="236" y="152" as="sourcePoint" />
            <mxPoint x="180" y="240" as="targetPoint" />
          </mxGeometry>
        </mxCell>
        <mxCell id="ieHxNAg3_DzlAvknqoRB-26" value="" style="endArrow=none;html=1;rounded=0;entryX=1;entryY=0.5;entryDx=0;entryDy=0;exitX=0;exitY=0.5;exitDx=0;exitDy=0;" edge="1" parent="1" source="ieHxNAg3_DzlAvknqoRB-9" target="ieHxNAg3_DzlAvknqoRB-2">
          <mxGeometry width="50" height="50" relative="1" as="geometry">
            <mxPoint x="270" y="200" as="sourcePoint" />
            <mxPoint x="220" y="280" as="targetPoint" />
          </mxGeometry>
        </mxCell>
        <mxCell id="ieHxNAg3_DzlAvknqoRB-27" value="Notes" style="rounded=0;whiteSpace=wrap;html=1;" vertex="1" parent="1">
          <mxGeometry x="470" y="235" width="120" height="60" as="geometry" />
        </mxCell>
        <mxCell id="ieHxNAg3_DzlAvknqoRB-28" value="id" style="ellipse;whiteSpace=wrap;html=1;direction=south;" vertex="1" parent="1">
          <mxGeometry x="420" y="190" width="40" height="50" as="geometry" />
        </mxCell>
        <mxCell id="ieHxNAg3_DzlAvknqoRB-29" value="user_id" style="ellipse;whiteSpace=wrap;html=1;" vertex="1" parent="1">
          <mxGeometry x="600" y="190" width="50" height="40" as="geometry" />
        </mxCell>
        <mxCell id="ieHxNAg3_DzlAvknqoRB-30" value="date" style="ellipse;whiteSpace=wrap;html=1;" vertex="1" parent="1">
          <mxGeometry x="560" y="155" width="50" height="40" as="geometry" />
        </mxCell>
        <mxCell id="ieHxNAg3_DzlAvknqoRB-31" value="content" style="ellipse;whiteSpace=wrap;html=1;" vertex="1" parent="1">
          <mxGeometry x="500" y="140" width="50" height="40" as="geometry" />
        </mxCell>
        <mxCell id="ieHxNAg3_DzlAvknqoRB-34" value="title" style="ellipse;whiteSpace=wrap;html=1;" vertex="1" parent="1">
          <mxGeometry x="460" y="160" width="50" height="40" as="geometry" />
        </mxCell>
        <mxCell id="ieHxNAg3_DzlAvknqoRB-36" value="" style="endArrow=none;html=1;rounded=0;entryX=0.5;entryY=0;entryDx=0;entryDy=0;exitX=1;exitY=1;exitDx=0;exitDy=0;" edge="1" parent="1" source="ieHxNAg3_DzlAvknqoRB-34" target="ieHxNAg3_DzlAvknqoRB-27">
          <mxGeometry width="50" height="50" relative="1" as="geometry">
            <mxPoint x="380" y="205" as="sourcePoint" />
            <mxPoint x="430" y="155" as="targetPoint" />
          </mxGeometry>
        </mxCell>
        <mxCell id="ieHxNAg3_DzlAvknqoRB-37" value="" style="endArrow=none;html=1;rounded=0;entryX=0.5;entryY=0;entryDx=0;entryDy=0;" edge="1" parent="1" source="ieHxNAg3_DzlAvknqoRB-31" target="ieHxNAg3_DzlAvknqoRB-27">
          <mxGeometry width="50" height="50" relative="1" as="geometry">
            <mxPoint x="470" y="185" as="sourcePoint" />
            <mxPoint x="567" y="221" as="targetPoint" />
          </mxGeometry>
        </mxCell>
        <mxCell id="ieHxNAg3_DzlAvknqoRB-38" value="" style="endArrow=none;html=1;rounded=0;entryX=0.5;entryY=0;entryDx=0;entryDy=0;exitX=0.5;exitY=1;exitDx=0;exitDy=0;" edge="1" parent="1" source="ieHxNAg3_DzlAvknqoRB-30" target="ieHxNAg3_DzlAvknqoRB-27">
          <mxGeometry width="50" height="50" relative="1" as="geometry">
            <mxPoint x="493" y="149" as="sourcePoint" />
            <mxPoint x="540" y="245" as="targetPoint" />
          </mxGeometry>
        </mxCell>
        <mxCell id="ieHxNAg3_DzlAvknqoRB-39" value="" style="endArrow=none;html=1;rounded=0;exitX=0.118;exitY=0.79;exitDx=0;exitDy=0;exitPerimeter=0;" edge="1" parent="1" source="ieHxNAg3_DzlAvknqoRB-29">
          <mxGeometry width="50" height="50" relative="1" as="geometry">
            <mxPoint x="540" y="135" as="sourcePoint" />
            <mxPoint x="530" y="235" as="targetPoint" />
          </mxGeometry>
        </mxCell>
        <mxCell id="ieHxNAg3_DzlAvknqoRB-43" value="" style="endArrow=none;html=1;rounded=0;exitX=0.5;exitY=0;exitDx=0;exitDy=0;entryX=0.5;entryY=0;entryDx=0;entryDy=0;" edge="1" parent="1" source="ieHxNAg3_DzlAvknqoRB-28" target="ieHxNAg3_DzlAvknqoRB-27">
          <mxGeometry width="50" height="50" relative="1" as="geometry">
            <mxPoint x="493" y="204" as="sourcePoint" />
            <mxPoint x="530" y="230" as="targetPoint" />
          </mxGeometry>
        </mxCell>
      </root>
    </mxGraphModel>
  </diagram>
</mxfile>
